<svg width="189" height="101" viewBox="0 0 189 101" fill="none" xmlns="http://www.w3.org/2000/svg">
<path d="M19.8089 64.8503C19.1597 65.0356 18.4459 65.2421 17.6675 65.4698C16.8891 65.6975 16.1885 65.9024 15.5658 66.0846C15.5668 65.1982 15.5695 64.325 15.5737 63.465C15.5642 62.7141 15.5414 61.9648 15.5054 61.2171C15.4959 60.4662 15.4858 59.8229 15.4753 59.287L12.02 59.7016L11.1177 65.6112C10.5447 65.7605 9.86746 65.9358 9.08587 66.137C8.3011 66.3117 7.56928 66.4801 6.89042 66.6422C6.05587 66.8497 5.23456 67.0557 4.42649 67.2601C5.063 63.6116 5.69263 60.0177 6.31538 56.4783C6.56744 54.9977 6.8248 53.4493 7.08745 51.8332C7.37659 50.2139 7.65407 48.6094 7.9199 47.0197C8.20903 45.4004 8.47963 43.8505 8.73169 42.3699C8.98376 40.8893 9.19716 39.5343 9.37191 38.3047C11.1564 37.9562 12.9643 37.5782 14.7954 37.1704C16.653 36.7595 18.4497 36.2888 20.1855 35.7582C20.2078 36.615 20.2422 37.6852 20.2888 38.9688C20.3587 40.2227 20.4429 41.5958 20.5414 43.088C20.6399 44.5802 20.7463 46.1386 20.8607 47.7633C20.975 49.3879 21.0862 50.986 21.1942 52.5577C21.5003 56.2273 21.8201 60.1237 22.1537 64.2466C21.3753 64.4743 20.5937 64.6755 19.8089 64.8503ZM12.4966 55.6157C12.6025 55.603 12.7879 55.5807 13.0526 55.549C13.3407 55.4875 13.6304 55.4394 13.9216 55.4044C14.2362 55.3398 14.5258 55.2916 14.7906 55.2599C15.0522 55.2016 15.2343 55.1529 15.3371 55.1137C15.318 54.9548 15.2995 54.6885 15.2815 54.3146C15.2868 53.9111 15.274 53.4695 15.2433 52.9897C15.2359 52.4803 15.2237 51.9312 15.2068 51.3424C15.1899 50.7535 15.1745 50.1779 15.1607 49.6155C15.1046 48.2525 15.0623 46.7804 15.0337 45.1992L14.8573 41.7154L14.2664 41.8266L13.7628 45.3517L12.4966 55.6157ZM38.0627 55.6097C37.8731 57.1633 37.4977 58.511 36.9364 59.6527C36.4015 60.7912 35.7121 61.7602 34.868 62.5598C34.0504 63.3562 33.1444 63.9752 32.1499 64.4169C31.1554 64.8585 30.1419 65.1413 29.1093 65.2652C28.5003 65.3382 27.8654 65.307 27.2046 65.1714C26.5469 65.0623 25.9427 64.8394 25.392 64.5026C24.8413 64.1658 24.3573 63.7136 23.94 63.1459C23.5492 62.5751 23.3046 61.8793 23.2061 61.0585C23.1934 60.9526 23.1807 60.8467 23.1679 60.7408C23.1552 60.6349 23.1558 60.5274 23.1695 60.4183C23.1452 59.3201 23.16 57.9888 23.214 56.4246C23.268 54.8603 23.3274 53.2283 23.392 51.5285C23.4566 49.8287 23.5477 48.1257 23.6652 46.4195C23.7796 44.6869 23.8733 43.1179 23.9464 41.7125C24.046 40.304 24.1344 39.1385 24.2117 38.216C24.2859 37.2671 24.3367 36.6835 24.3642 36.4654C24.9139 36.3457 25.5679 36.2001 26.3262 36.0285C27.0845 35.8569 27.7914 35.705 28.447 35.5726C29.2582 35.3947 30.0562 35.2183 30.841 35.0436C30.537 38.3299 30.276 41.3022 30.0578 43.9604C29.9529 45.101 29.8481 46.2416 29.7432 47.3823C29.6648 48.5197 29.5753 49.5645 29.4747 50.5166C29.4006 51.4655 29.3254 52.2937 29.2491 53.0011C29.1962 53.679 29.1422 54.236 29.0871 54.6724C29.0585 55.1055 29.0177 55.661 28.9648 56.3388C28.9351 56.987 28.9521 57.5758 29.0156 58.1053C29.0664 58.529 29.2152 58.8737 29.462 59.1395C29.7056 59.3789 29.9862 59.4795 30.304 59.4413C30.7541 59.3873 31.1041 59.1708 31.354 58.7916C31.6008 58.386 31.7867 57.9205 31.9116 57.3952C32.0631 56.8668 32.1483 56.3462 32.1674 55.8336C32.2098 55.2914 32.2532 54.8699 32.2977 54.5691C32.3644 53.7822 32.4348 52.9143 32.509 51.9654C32.6064 50.9868 32.6874 49.9833 32.752 48.955C32.8399 47.897 32.913 46.8273 32.9713 45.746C33.056 44.6615 33.1307 43.6051 33.1953 42.5767C33.3658 40.1928 33.5135 37.731 33.6385 35.1913L39.6276 34.0698C39.6276 34.0698 39.6027 34.4219 39.5529 35.1262C39.5031 35.8305 39.4406 36.7646 39.3654 37.9285C39.2902 39.0924 39.2076 40.4184 39.1176 41.9064C39.054 43.3912 38.9587 44.947 38.8316 46.5737C38.7013 48.1739 38.5695 49.761 38.436 51.3347C38.3259 52.8789 38.2014 54.3038 38.0627 55.6097ZM55.0427 52.7664C54.582 54.2989 54.0196 55.6555 53.3556 56.8364C52.7149 57.9876 52.0021 58.9863 51.2173 59.8325C50.4559 60.649 49.6589 61.2818 48.8265 61.7309C47.994 62.1799 47.1674 62.4537 46.3467 62.5522C45.5259 62.6506 44.7491 62.5559 44.0162 62.2678C43.3098 61.9765 42.6606 61.4904 42.0686 60.8094C41.4765 60.1285 40.9565 59.2643 40.5086 58.2168C40.0871 57.1662 39.7889 55.9128 39.6142 54.4566C39.3155 51.9678 39.3659 49.4774 39.7651 46.9854C40.1612 44.4669 40.8655 42.1666 41.878 40.0845C42.8905 38.0024 44.1741 36.2772 45.7288 34.9089C47.3068 33.5109 49.1284 32.688 51.1936 32.4402C51.829 32.3639 52.4539 32.4233 53.0681 32.6181C53.6824 32.813 54.2299 33.1233 54.7108 33.5491C55.1916 33.9748 55.5924 34.5176 55.9133 35.1774C56.2607 35.834 56.4852 36.5859 56.5869 37.4332C56.6059 37.5921 56.6266 37.7642 56.6488 37.9495C56.6679 38.1084 56.6753 38.282 56.6711 38.4706L51.6352 40.4849C51.238 39.8611 50.8277 39.5746 50.404 39.6254C49.9804 39.6763 49.5605 39.9818 49.1443 40.5421C48.7514 41.0727 48.3775 41.7621 48.0227 42.6104C47.6647 43.4323 47.3327 44.3584 47.0266 45.3889C46.7174 46.3929 46.4627 47.4038 46.2625 48.4215C46.0623 49.4393 45.9104 50.411 45.8066 51.3366C45.7261 52.2326 45.7192 52.9586 45.7859 53.5146C45.8876 54.3618 46.065 54.9449 46.3181 55.2636C46.5977 55.5792 46.9228 55.7148 47.2935 55.6703C47.5847 55.6354 47.903 55.4898 48.2482 55.2335C48.5903 54.9507 48.8996 54.6181 49.176 54.2358C49.4492 53.827 49.6912 53.3817 49.902 52.8998C50.1127 52.4179 50.2441 51.9456 50.296 51.4828L55.0427 52.7664ZM59.1326 60.9776C59.3921 57.9921 59.6299 55.0495 59.8459 52.1497C59.9413 50.9297 60.0302 49.6567 60.1128 48.3307C60.1955 47.0048 60.268 45.7069 60.3305 44.4371C60.4163 43.1376 60.4687 41.8958 60.4878 40.7118C60.5302 39.4981 60.5588 38.3935 60.5736 37.398C59.9551 37.3916 59.3297 37.4398 58.6974 37.5425C58.0917 37.6421 57.4732 37.6357 56.842 37.5235C56.8176 37.0966 56.7721 36.6052 56.7053 36.0492C56.6386 35.4932 56.5851 34.9356 56.5449 34.3764C56.4983 33.7643 56.4469 33.1124 56.3908 32.4209C57.0856 32.3912 57.7787 32.3483 58.4703 32.2922C59.1619 32.2361 59.8518 32.1667 60.5402 32.0841C61.8906 31.9221 63.1847 31.7399 64.4228 31.5376C65.6841 31.3057 66.8396 31.0865 67.8891 30.88C68.962 30.6438 70.0067 30.3976 71.0234 30.1413L70.8439 32.3383C70.7846 32.9632 70.7269 33.6012 70.6708 34.2526C70.6411 34.9007 70.6003 35.4562 70.5484 35.919C69.985 36.1478 69.4036 36.3384 68.8041 36.4909C68.228 36.6138 67.655 36.7631 67.0853 36.9389C67.008 37.8613 66.9301 38.8913 66.8517 40.0287C66.7702 41.1397 66.695 42.3036 66.6261 43.5205C66.5806 44.7077 66.5382 45.9214 66.499 47.1615C66.4598 48.4017 66.4143 49.5889 66.3624 50.7232C66.2533 53.3952 66.1818 56.1567 66.1479 59.0077L59.1326 60.9776ZM76.5987 58.0357C76.3604 58.0643 75.8886 58.1612 75.1833 58.3264C74.5012 58.462 73.7959 58.6272 73.0673 58.822C72.3354 58.9904 71.6698 59.1509 71.0704 59.3034C70.4974 59.4527 70.1861 59.5438 70.1363 59.5766C70.2644 58.4063 70.3783 57.1169 70.4778 55.7084C70.6007 54.2702 70.7172 52.779 70.8274 51.2349C70.9343 49.6643 71.0265 48.082 71.1038 46.4881C71.1811 44.8942 71.2515 43.3549 71.3151 41.8701C71.4644 38.4143 71.6027 34.8659 71.7298 31.2248L77.8062 29.4885C77.6229 33.1095 77.445 36.6626 77.2724 40.148C77.2088 41.6328 77.1384 43.1722 77.0611 44.7661C77.0102 46.3568 76.9445 47.9359 76.8641 49.5033C76.81 51.0676 76.7645 52.5905 76.7274 54.0721C76.6872 55.5273 76.6443 56.8485 76.5987 58.0357ZM97.633 34.5222C97.8936 36.6932 97.9015 38.7738 97.6569 40.7638C97.4355 42.7241 97.0378 44.5579 96.4638 46.2651C95.8866 47.9458 95.1579 49.4836 94.2779 50.8784C93.4211 52.2435 92.4907 53.4429 91.4867 54.4766C90.4795 55.4837 89.4352 56.2939 88.3539 56.9071C87.2694 57.4938 86.2109 57.8492 85.1783 57.9731C84.3046 58.0779 83.4912 58.0144 82.7382 57.7824C81.982 57.524 81.3011 57.1089 80.6953 56.537C80.0863 55.9386 79.5626 55.1554 79.1242 54.1874C78.709 53.1898 78.4157 51.9761 78.2441 50.5463C78.0662 49.0636 78.0641 47.4793 78.2377 45.7932C78.4114 44.1072 78.7191 42.4185 79.1607 40.7272C79.6024 39.0358 80.1992 37.4065 80.9511 35.839C81.7031 34.2716 82.5683 32.8652 83.5469 31.6197C84.5223 30.3478 85.6057 29.3046 86.7972 28.4902C87.9887 27.6758 89.2728 27.186 90.6496 27.0207C91.841 26.8778 92.8508 27.0118 93.679 27.4227C94.5305 27.8039 95.2157 28.3663 95.7347 29.1098C96.2769 29.8236 96.6995 30.6592 97.0024 31.6166C97.3053 32.574 97.5155 33.5425 97.633 34.5222ZM84.0377 48.8036C84.0727 49.0949 84.1622 49.393 84.3062 49.698C84.4502 50.003 84.6292 50.2636 84.8431 50.4796C85.0571 50.6957 85.3075 50.8805 85.5946 51.034C85.9049 51.158 86.2189 51.2009 86.5366 51.1627C87.728 51.0198 88.7379 50.4823 89.5661 49.5503C90.3943 48.6183 91.0414 47.5201 91.5073 46.2556C91.9733 44.991 92.2842 43.6645 92.4399 42.2761C92.622 40.8845 92.6464 39.6327 92.513 38.5206C92.4748 38.2029 92.4071 37.8619 92.3096 37.4976C92.2387 37.1301 92.1179 36.7954 91.9474 36.4936C91.8034 36.1886 91.5863 35.946 91.2961 35.766C91.0292 35.5563 90.684 35.4769 90.2603 35.5277C89.4131 35.6294 88.6574 35.9349 87.9934 36.4443C87.3294 36.9537 86.749 37.6008 86.2523 38.3856C85.7789 39.1407 85.3844 39.9938 85.0688 40.9448C84.75 41.8694 84.4873 42.8141 84.2808 43.7789C84.0976 44.7141 83.9922 45.6264 83.9647 46.5161C83.9371 47.4057 83.9615 48.1682 84.0377 48.8036ZM97.7793 56.5013C98.1161 52.5933 98.4275 48.8093 98.7134 45.1491C98.7939 43.5817 98.8813 41.9597 98.9756 40.2832C99.0963 38.6036 99.1937 36.9535 99.2679 35.3332C99.3388 33.6863 99.3929 32.1221 99.4299 30.6404C99.4638 29.1323 99.4622 27.7762 99.4252 26.572C99.7726 26.5572 100.065 26.5355 100.304 26.5069C100.542 26.4783 100.82 26.4449 101.138 26.4068C101.508 26.3623 101.958 26.3083 102.488 26.2448C103.014 26.1547 103.541 26.0647 104.067 25.9747C104.593 25.8847 105.16 25.7899 105.765 25.6904C106.358 27.4992 106.904 29.2467 107.402 30.9328C107.874 32.407 108.351 33.9209 108.833 35.4746C109.341 37.0251 109.781 38.342 110.153 39.4254C110.195 38.8832 110.241 38.2599 110.291 37.5556C110.338 36.8249 110.394 36.0661 110.461 35.2792C110.528 34.4923 110.581 33.707 110.622 32.9233C110.685 32.1099 110.75 31.3098 110.817 30.5229C110.981 28.7574 111.152 26.9374 111.33 25.0629L116.104 23.8857C115.69 28.0447 115.356 31.9791 115.103 35.6891C114.973 37.2893 114.846 38.916 114.722 40.5692C114.621 42.1928 114.527 43.7618 114.441 45.2763C114.351 46.7643 114.289 48.1548 114.256 49.4479C114.22 50.7146 114.2 51.7779 114.196 52.6379C114.116 52.6474 113.807 52.7517 113.267 52.9508C112.75 53.1203 112.143 53.3273 111.448 53.5719C110.778 53.8134 110.096 54.0565 109.4 54.3011C108.731 54.5426 108.232 54.7501 107.903 54.9238C107.49 52.8248 107.077 50.8332 106.663 48.9491C106.485 48.1378 106.292 47.315 106.085 46.4804C105.9 45.6162 105.708 44.7933 105.506 44.0117C105.305 43.2301 105.11 42.5015 104.922 41.8258C104.733 41.1501 104.556 40.5671 104.39 40.0767C104.37 40.5893 104.334 41.1845 104.281 41.8623C104.229 42.5401 104.18 43.2577 104.137 44.0149C104.093 44.7721 104.055 45.5691 104.021 46.4057C103.984 47.2159 103.93 48.0012 103.86 48.7616C103.729 50.5769 103.581 52.4747 103.416 54.4552L97.7793 56.5013Z" fill="#161617"/>
<path d="M66.819 93.466C67.0689 89.7296 67.3136 86.061 67.5529 82.4602C67.6133 80.9489 67.6938 79.3815 67.7944 77.7579C67.8919 76.1079 67.9792 74.4859 68.0566 72.892C68.1339 71.2981 68.2043 69.7588 68.2679 68.2739C68.3282 66.7627 68.378 65.3869 68.4172 64.1468L74.7986 62.9378C74.5709 64.8452 74.3528 66.832 74.1441 68.8983C73.9619 70.9613 73.7999 72.9683 73.658 74.9191L77.5373 74.0104C77.6824 72.0861 77.7958 70.2327 77.8773 68.4503C77.9557 66.6414 78.1204 64.7685 78.3714 62.8314C78.9677 62.6524 79.6333 62.492 80.3683 62.3501C81.1001 62.1817 81.7805 62.0329 82.4096 61.9037C83.0387 61.7745 83.5635 61.6712 83.9839 61.5939C84.4277 61.487 84.6496 61.4335 84.6496 61.4335C84.4219 62.6694 84.2217 64.0229 84.0491 65.4939C83.8997 66.9353 83.7583 68.4429 83.6249 70.0167C83.4883 71.564 83.3681 73.1362 83.2643 74.7333C83.1605 76.3303 83.0736 77.8448 83.0037 79.2767C82.8247 82.7091 82.695 86.2162 82.6145 89.798L76.5047 91.2563C76.6583 89.6264 76.7769 88.041 76.8606 86.5C76.9728 85.1974 77.0787 83.8418 77.1783 82.4332C77.3043 81.0215 77.388 79.8162 77.4293 78.8175L73.6198 79.6372C73.5552 80.6656 73.47 81.8576 73.3641 83.2132C73.2846 84.5656 73.2105 85.8503 73.1416 87.0671C73.022 88.5318 72.9023 89.9965 72.7826 91.4612L66.819 93.466ZM103.684 67.1666C103.944 69.3377 103.952 71.4182 103.707 73.4082C103.486 75.3685 103.088 77.2023 102.514 78.9095C101.937 80.5903 101.208 82.128 100.328 83.5228C99.4715 84.888 98.5411 86.0873 97.5371 87.121C96.5299 88.1282 95.4857 88.9384 94.4044 89.5515C93.3199 90.1383 92.2614 90.4936 91.2288 90.6175C90.355 90.7223 89.5417 90.6588 88.7887 90.4268C88.0325 90.1684 87.3515 89.7533 86.7457 89.1814C86.1368 88.583 85.6131 87.7998 85.1746 86.8318C84.7595 85.8342 84.4661 84.6205 84.2945 83.1907C84.1166 81.708 84.1145 80.1237 84.2882 78.4376C84.4619 76.7516 84.7696 75.0629 85.2112 73.3716C85.6528 71.6803 86.2496 70.0509 87.0016 68.4835C87.7535 66.916 88.6188 65.5096 89.5974 64.2641C90.5728 62.9922 91.6562 61.949 92.8477 61.1346C94.0391 60.3202 95.3232 59.8304 96.7 59.6652C97.8915 59.5222 98.9013 59.6562 99.7295 60.0671C100.581 60.4484 101.266 61.0107 101.785 61.7542C102.327 62.468 102.75 63.3036 103.053 64.261C103.356 65.2184 103.566 66.1869 103.684 67.1666ZM90.0882 81.4481C90.1231 81.7393 90.2126 82.0374 90.3567 82.3425C90.5007 82.6475 90.6797 82.908 90.8936 83.124C91.1075 83.3401 91.358 83.5249 91.645 83.6785C91.9553 83.8024 92.2693 83.8453 92.5871 83.8072C93.7785 83.6642 94.7883 83.1267 95.6165 82.1947C96.4447 81.2628 97.0918 80.1645 97.5578 78.9C98.0238 77.6354 98.3346 76.309 98.4903 74.9205C98.6725 73.5289 98.6969 72.2771 98.5634 71.1651C98.5253 70.8474 98.4575 70.5063 98.3601 70.142C98.2891 69.7745 98.1684 69.4398 97.9979 69.138C97.8539 68.833 97.6367 68.5905 97.3466 68.4104C97.0797 68.2007 96.7344 68.1213 96.3108 68.1721C95.4635 68.2738 94.7079 68.5793 94.0439 69.0888C93.3798 69.5982 92.7994 70.2452 92.3027 71.03C91.8293 71.7851 91.4348 72.6382 91.1192 73.5893C90.8004 74.5138 90.5378 75.4585 90.3313 76.4233C90.148 77.3585 90.0427 78.2709 90.0151 79.1605C89.9876 80.0501 90.0119 80.8126 90.0882 81.4481ZM119.2 79.244C119.01 80.7977 118.634 82.1453 118.073 83.287C117.538 84.4255 116.849 85.3945 116.005 86.1941C115.187 86.9905 114.281 87.6096 113.287 88.0512C112.292 88.4928 111.279 88.7756 110.246 88.8995C109.637 88.9726 109.002 88.9413 108.341 88.8058C107.684 88.6967 107.079 88.4737 106.529 88.137C105.978 87.8002 105.494 87.3479 105.077 86.7803C104.686 86.2094 104.441 85.5136 104.343 84.6929C104.33 84.5869 104.317 84.481 104.305 84.3751C104.292 84.2692 104.293 84.1617 104.306 84.0526C104.282 82.9544 104.297 81.6231 104.351 80.0589C104.405 78.4947 104.464 76.8626 104.529 75.1628C104.593 73.463 104.684 71.76 104.802 70.0539C104.916 68.3212 105.01 66.7522 105.083 65.3468C105.183 63.9383 105.271 62.7728 105.349 61.8503C105.423 60.9014 105.474 60.3179 105.501 60.0997C106.051 59.98 106.705 59.8344 107.463 59.6628C108.221 59.4913 108.928 59.3393 109.584 59.2069C110.395 59.029 111.193 58.8527 111.978 58.6779C111.674 61.9642 111.413 64.9365 111.195 67.5947C111.09 68.7354 110.985 69.876 110.88 71.0166C110.802 72.154 110.712 73.1988 110.612 74.1509C110.537 75.0998 110.462 75.928 110.386 76.6355C110.333 77.3133 110.279 77.8704 110.224 78.3067C110.195 78.7398 110.155 79.2953 110.102 79.9731C110.072 80.6213 110.089 81.2101 110.152 81.7397C110.203 82.1633 110.352 82.508 110.599 82.7738C110.842 83.0132 111.123 83.1138 111.441 83.0757C111.891 83.0217 112.241 82.8051 112.491 82.4259C112.738 82.0203 112.923 81.5549 113.048 81.0296C113.2 80.5011 113.285 79.9806 113.304 79.468C113.347 78.9257 113.39 78.5042 113.434 78.2034C113.501 77.4166 113.572 76.5486 113.646 75.5997C113.743 74.6211 113.824 73.6177 113.889 72.5893C113.977 71.5313 114.05 70.4617 114.108 69.3803C114.193 68.2959 114.267 67.2394 114.332 66.2111C114.503 63.8271 114.65 61.3653 114.775 58.8257L120.764 57.7041C120.764 57.7041 120.739 58.0563 120.69 58.7606C120.64 59.4648 120.577 60.3989 120.502 61.5628C120.427 62.7268 120.344 64.0527 120.254 65.5407C120.191 67.0255 120.096 68.5813 119.968 70.208C119.838 71.8083 119.706 73.3953 119.573 74.9691C119.463 76.5132 119.338 77.9382 119.2 79.244ZM136.662 75.0536C136.84 76.5363 136.711 77.9215 136.275 79.2094C135.862 80.4675 135.218 81.5923 134.343 82.5836C133.495 83.5717 132.437 84.3834 131.171 85.0189C129.93 85.6511 128.556 86.0578 127.047 86.2389C125.988 86.366 124.895 86.2151 123.769 85.7861C122.64 85.3307 121.511 84.5396 120.382 83.4128L122.63 77.3014C122.857 77.6234 123.178 77.9474 123.593 78.2736C124.005 78.5734 124.452 78.8286 124.934 79.0393C125.442 79.2469 125.932 79.4164 126.405 79.5477C126.9 79.6494 127.334 79.678 127.704 79.6335C128.022 79.5954 128.347 79.5027 128.678 79.3555C129.01 79.2083 129.308 79.0113 129.574 78.7645C129.84 78.5178 130.036 78.2525 130.163 77.9686C130.314 77.6552 130.367 77.3131 130.322 76.9424C130.246 76.307 129.964 75.7499 129.477 75.2712C129.013 74.7628 128.448 74.3069 127.782 73.9034C127.113 73.4734 126.391 73.0498 125.615 72.6325C124.84 72.2152 124.115 71.7651 123.439 71.2822C122.79 70.7961 122.212 70.2342 121.706 69.5967C121.2 68.9591 120.896 68.2167 120.794 67.3695C120.629 65.9927 120.885 64.6593 121.563 63.3694C122.241 62.0794 123.138 60.9377 124.254 59.9443C125.393 58.9213 126.661 58.0709 128.057 57.3931C129.453 56.7153 130.8 56.2985 132.097 56.1428C132.812 56.0571 133.498 56.0687 134.156 56.1778C134.81 56.2604 135.386 56.4733 135.884 56.8164C136.405 57.1299 136.833 57.562 137.168 58.1127C137.529 58.6603 137.762 59.3709 137.867 60.2446C137.911 60.6153 137.916 60.9907 137.881 61.371C137.872 61.748 137.867 62.1515 137.865 62.5815L132.307 64.9405C132.334 64.7224 132.348 64.5058 132.349 64.2908C132.377 64.0726 132.378 63.8576 132.353 63.6458C132.257 62.8515 132.043 62.2997 131.711 61.9905C131.402 61.6516 131.022 61.5091 130.572 61.5631C130.36 61.5886 130.105 61.6998 129.806 61.8968C129.534 62.0906 129.255 62.3389 128.969 62.6418C128.706 62.915 128.49 63.2365 128.319 63.6061C128.149 63.9757 128.087 64.3591 128.135 64.7562C128.211 65.3917 128.447 65.9006 128.842 66.2829C129.263 66.662 129.761 67.0052 130.335 67.3123C130.909 67.6194 131.524 67.935 132.181 68.2591C132.861 68.5535 133.502 68.9735 134.105 69.5189C134.707 70.0643 135.236 70.7797 135.692 71.6651C136.171 72.5208 136.494 73.6503 136.662 75.0536ZM137.633 84.9282L139.448 56.0665L151.869 53.4883C151.753 54.093 151.666 54.7078 151.607 55.3326C151.535 55.8516 151.466 56.397 151.4 56.9689C151.358 57.5111 151.322 57.9988 151.294 58.432C151.032 58.4902 150.652 58.5628 150.152 58.6496C149.675 58.7068 149.16 58.782 148.608 58.8752C148.051 58.9419 147.482 59.0102 146.9 59.0801C146.344 59.1468 145.854 59.2056 145.43 59.2564L144.893 66.5322C145.708 66.3808 146.471 66.249 147.183 66.1367C147.762 66.0403 148.356 65.9556 148.965 65.8825C149.574 65.8095 150.022 65.7422 150.31 65.6808C150.294 66.4348 150.275 67.1757 150.255 67.9032C150.261 68.6276 150.243 69.3685 150.199 70.1257C149.938 70.1839 149.504 70.2628 148.898 70.3624C148.316 70.4323 147.722 70.517 147.116 70.6166C146.431 70.7256 145.679 70.8427 144.862 70.9676L144.388 78.4372L150.077 76.828L150.223 81.4032L137.633 84.9282Z" fill="#161617"/>
<path fill-rule="evenodd" clip-rule="evenodd" d="M128.784 26.4438C127.686 25.3662 125.922 25.3828 124.845 26.4809C123.767 27.5789 123.784 29.3427 124.882 30.4203L127.693 33.1789L141.753 46.9769C142.851 48.0545 144.614 48.0379 145.692 46.9398C146.77 45.8418 146.753 44.078 145.655 43.0004L144.831 42.1922L147.827 39.1395L168.333 59.2628C169.147 60.0634 170.112 60.6955 171.171 61.123C172.23 61.5505 173.363 61.7651 174.506 61.7543C175.648 61.7436 176.777 61.5078 177.828 61.0604C178.879 60.6131 179.832 59.9629 180.631 59.1471C183.998 55.7152 183.946 50.2196 180.514 46.8521L160.008 26.7276L163.004 23.6743L163.828 24.4826C164.926 25.5602 166.69 25.5436 167.767 24.4455C168.845 23.3475 168.828 21.5837 167.73 20.5061L153.672 6.70997C153.673 6.71031 153.672 6.70962 153.672 6.70997C153.672 6.70962 153.671 6.70826 153.67 6.70792L150.86 3.94952C149.762 2.8719 147.998 2.88847 146.92 3.98654C145.843 5.08462 145.859 6.84836 146.957 7.92599L147.781 8.73421L129.608 27.2521L128.784 26.4438ZM133.584 31.1545L140.855 38.2898L159.028 19.7719L151.757 12.6366L133.584 31.1545ZM172.236 55.2875L151.73 35.163L156.106 30.7041L176.612 50.8286C177.848 52.0413 177.865 54.0115 176.652 55.2472C176.365 55.54 176.023 55.7734 175.646 55.934C175.269 56.0946 174.863 56.1793 174.453 56.1831C174.043 56.187 173.637 56.1099 173.256 55.9565C172.876 55.803 172.529 55.5749 172.236 55.2875Z" fill="#161617"/>
</svg>
